# xmcd
#
# Track frame offsets:
#	187
#	14110
#	29400
#	46952
#	59430
#	76112
#	89232
#	105482
#	118227
#	132582
#
# Disc length: 1937 seconds
# Revision: 7
# Processed by: cddbd v1.5.2PL0 Copyright (c) Steve Scherf et al.
# Submitted via: dBpowerAMP V12.0
#
DISCID=8d078f0a
DTITLE=Aaron Tippin - Read Between The Lines
DYEAR=1992
DGENRE=Country
TTITLE0=The Sound Of Your Goodbye (Sticks And Stones)
TTITLE1=My Blue Angel
TTITLE2=If I Had It To Do Over
TTITLE3=There Ain't Nothin' Wrong With The Radio
TTITLE4=Read Between The Lines
TTITLE5=This Heart
TTITLE6=These Sweet Dreams
TTITLE7=I Was Born With A Broken Heart
TTITLE8=I Wouldn't Have It Any Other Way
TTITLE9=I Miss Misbehavin'
EXTD=
EXTT0=
EXTT1=
EXTT2=
EXTT3=
EXTT4=
EXTT5=
EXTT6=
EXTT7=
EXTT8=
EXTT9=
PLAYORDER=
